<svg xmlns="http://www.w3.org/2000/svg" viewBox="0 0 200 200">
  <!-- Background circle -->
  <circle cx="100" cy="100" r="96" fill="#3498db" />
  <circle cx="100" cy="100" r="88" fill="#2980b9" />
  
  <!-- TV Screen Outline -->
  <rect x="40" y="45" width="120" height="80" rx="8" ry="8" fill="#ecf0f1" />
  
  <!-- TV Screen Inner -->
  <rect x="45" y="50" width="110" height="70" rx="4" ry="4" fill="#34495e" />
  
  <!-- TV Stand -->
  <path d="M85 125 L115 125 L125 145 L75 145 Z" fill="#ecf0f1" />
  
  <!-- Notification Bell -->
  <path d="M100 75 C110 75, 120 85, 120 105 L120 110 L122 110 C126 110, 126 115, 122 115 L78 115 C74 115, 74 110, 78 110 L80 110 L80 105 C80 85, 90 75, 100 75 Z" fill="#e74c3c" />
  <circle cx="100" cy="120" r="5" fill="#e74c3c" />
  
  <!-- Play Button Triangle -->
  <path d="M85 75 L85 105 L110 90 Z" fill="#ecf0f1" />
  
  <!-- Clock Hands (representing scheduling) -->
  <circle cx="140" cy="65" r="12" fill="#f1c40f" />
  <line x1="140" y1="65" x2="140" y2="57" stroke="#34495e" stroke-width="2" stroke-linecap="round" />
  <line x1="140" y1="65" x2="146" y2="70" stroke="#34495e" stroke-width="2" stroke-linecap="round" />
</svg>